<svg xmlns="http://www.w3.org/2000/svg" viewBox="0 0 233.54 318.66"><defs><style>.cls-1{isolation:isolate;}.cls-2,.cls-4{fill:#4ea234;}.cls-3{fill:#74b736;}.cls-4{opacity:0.34;}.cls-4,.cls-7{mix-blend-mode:multiply;}.cls-5{fill:none;stroke:#010101;stroke-miterlimit:10;}.cls-10,.cls-6,.cls-7{fill:#f9d13a;}.cls-8{fill:#feedb8;}.cls-9{opacity:0.46;}.cls-10,.cls-9{mix-blend-mode:screen;}.cls-10{opacity:0.4;}.cls-11{fill:#fff;}.cls-12{fill:#309a37;}.cls-13{fill:#323644;}</style></defs><g class="cls-1"><g id="Capa_2" data-name="Capa 2"><g id="Capa_1-2" data-name="Capa 1"><path class="cls-2" d="M210.64,89.12c-5.07,1.69-8.76,2.78-6.78,2.87,1.58.09,3.56,1.83.53,2.59-1.65.42-17.37,1-25.67-10.61,0,0,0,0,0,0l-.09-.13a14.5,14.5,0,0,1-.89-1.48c-4.15-8-2.28-22.25.63-25.46,3.09-3.43,2.88-.57,3.41-1.28S192,43.26,195.44,43.08s.49,2.27,2,2.05,15.93-5.7,16.3-3.17c.18,1.23-5,3.17-2.66,3.21,3.77.08,19.34-1.73,21.54,2.64a9.19,9.19,0,0,1,.52,1.33c1.27,4.36-.8,10.6-5.62,18.39-.68,1.09,3.5-.67,2.42,1.52-4.1,8.28-13.39,11.37-11.94,11.63s3.42.9,3.12,2S215.73,87.43,210.64,89.12Z"/><path class="cls-3" d="M210.42,64.73a1.41,1.41,0,0,1-.18-.14c-2.92-2.52,1.63-15.93,2.39-16.88a1.05,1.05,0,0,1,1.39-.2,1,1,0,0,1,.2,1.34l-.11.13a45.82,45.82,0,0,0-2.18,7.1c-1.4,6.13-.45,7-.44,7.05,1.55,1.3,9,2.88,13.39,3.54a1,1,0,0,1-.29,1.91C223.41,68.4,213.18,66.79,210.42,64.73Z"/><path class="cls-3" d="M201,75.17a21.32,21.32,0,0,1-3.2-2.91c-6.2-6.94,3.33-24.29,3.74-25a1,1,0,0,1,1.31-.38,1,1,0,0,1,.37,1.31c-2.6,4.68-8.38,17.89-4,22.81,5.51,6.17,14.94,7.74,15,7.75a1,1,0,0,1-.3,1.9A32.63,32.63,0,0,1,201,75.17Z"/><path class="cls-3" d="M189.25,82.74a20.86,20.86,0,0,1-3.59-3.4c-6.79-8.21,1.53-26.11,1.89-26.87a1,1,0,0,1,1.28-.46,1,1,0,0,1,.46,1.28c-.09.18-8.16,17.55-2.15,24.82,6.14,7.42,17,8,17.14,8a1,1,0,0,1,.92,1,1,1,0,0,1-1,.91A30,30,0,0,1,189.25,82.74Z"/><path class="cls-4" d="M233.17,49.14q-1.84,1.3-4,2.76c-5,3.44-11.08,7.4-17.42,11.43l-1.7,1.08c-3.57,2.26-7.19,4.51-10.71,6.71l-1.66,1c-3.61,2.23-7.08,4.36-10.27,6.31l-1.68,1c-2.65,1.62-5.06,3.09-7.15,4.34a14.5,14.5,0,0,1-.89-1.48c-4.15-8-2.28-22.25.63-25.46,3.09-3.43,2.88-.57,3.41-1.28S192,43.26,195.44,43.08s.49,2.27,2,2.05,15.93-5.7,16.3-3.17c.18,1.23-5,3.17-2.66,3.21,3.77.08,19.34-1.73,21.54,2.64A9.19,9.19,0,0,1,233.17,49.14Z"/><path class="cls-3" d="M228.8,52.7c-4.49,3.17-10.33,7-16.52,10.9l-1.83,1.16c-3.58,2.24-7.24,4.49-10.79,6.66l-1.68,1c-3.67,2.24-7.19,4.36-10.34,6.24l-1.69,1L178.72,84s0,0,0,0l-.09-.13a14.5,14.5,0,0,1-.89-1.48l7.08-4.19,1.67-1c3.15-1.88,6.67-4,10.37-6.24.54-.34,1.09-.68,1.66-1,3.59-2.21,7.32-4.5,10.95-6.79L211.19,62c6.18-3.9,12-7.71,16.49-10.88a1,1,0,0,1,1.35.24,1,1,0,0,1,.17.54A1,1,0,0,1,228.8,52.7Z"/><path class="cls-2" d="M206.94,68.61c-3.08,4.38-5.4,7.45-3.75,6.35,1.32-.88,3.95-.65,2,1.76-1.08,1.32-13.37,11.12-26.94,6.74l-.05,0-.15,0q-.79-.29-1.59-.66c-8.11-4-15.07-16.54-14.64-20.84.44-4.6,2-2.18,2-3.06s.92-16,3.56-18.19,1.74,1.54,2.84.44S179.59,27,181.39,28.84c.88.89-2.09,5.5-.23,4.17,3.08-2.18,14.52-12.9,18.89-10.69a8,8,0,0,1,1.2.75c3.62,2.75,5.67,9,6.43,18.13.1,1.28,2.41-2.62,2.85-.21,1.63,9.09-4,17.09-2.68,16.44s3.29-1.31,3.73-.21S210,64.23,206.94,68.61Z"/><path class="cls-3" d="M192.25,49.14H192c-3.85-.28-8.17-13.77-8.12-15a1,1,0,0,1,1-1,1,1,0,0,1,1,1,1,1,0,0,1,0,.17,44.21,44.21,0,0,0,2.48,7c2.52,5.77,3.83,5.93,3.84,5.94,2,.12,9-3.06,12.87-5.12a1,1,0,1,1,.9,1.7C204.87,44.36,195.69,49.15,192.25,49.14Z"/><path class="cls-3" d="M190.9,63.13a21.21,21.21,0,0,1-4.31-.43c-9.11-1.9-11.77-21.51-11.88-22.34a1,1,0,0,1,.83-1.08,1,1,0,0,1,1.08.83c.69,5.3,3.9,19.36,10.36,20.7,8.1,1.69,16.61-2.66,16.69-2.71a1,1,0,0,1,.89,1.71A32.66,32.66,0,0,1,190.9,63.13Z"/><path class="cls-3" d="M186,76.21a20.62,20.62,0,0,1-4.92-.6c-10.33-2.55-14.3-21.89-14.46-22.71a1,1,0,0,1,.75-1.13,1,1,0,0,1,1.14.75c0,.19,3.88,19,13,21.22C190.84,76.06,200,70.05,200,70a1,1,0,0,1,1.33.26,1,1,0,0,1-.26,1.34A30,30,0,0,1,186,76.21Z"/><path class="cls-4" d="M201.25,23.07c-.46,1.44-1,3-1.54,4.59-2,5.73-4.5,12.54-7.2,19.54l-.73,1.89c-1.52,3.93-3.09,7.9-4.61,11.76-.25.6-.49,1.21-.73,1.81-1.57,3.94-3.09,7.72-4.5,11.18-.25.61-.5,1.22-.75,1.81C180,78.53,179,81.15,178,83.4q-.79-.29-1.59-.66c-8.11-4-15.07-16.54-14.64-20.84.44-4.6,2-2.18,2-3.06s.92-16,3.56-18.19,1.74,1.54,2.84.44S179.59,27,181.39,28.84c.88.89-2.09,5.5-.23,4.17,3.08-2.18,14.52-12.9,18.89-10.69A8,8,0,0,1,201.25,23.07Z"/><path class="cls-3" d="M199.86,28.54c-1.72,5.22-4.14,11.76-6.79,18.59-.26.67-.53,1.34-.79,2-1.54,3.93-3.14,7.92-4.7,11.77-.25.61-.49,1.22-.75,1.82-1.61,4-3.19,7.78-4.59,11.17-.26.62-.51,1.23-.77,1.81-1.27,3-2.38,5.69-3.25,7.74l-.05,0-.15,0q-.79-.29-1.59-.66c.86-2,1.95-4.62,3.2-7.59.24-.58.49-1.17.74-1.79,1.42-3.38,3-7.19,4.63-11.19.23-.6.47-1.19.72-1.8,1.58-3.91,3.21-8,4.77-12,.26-.64.51-1.28.75-1.91,2.65-6.81,5.07-13.35,6.78-18.55a1,1,0,0,1,1.69-.28A1,1,0,0,1,199.86,28.54Z"/><circle class="cls-5" cx="110.42" cy="153.35" r="99.35" transform="translate(-58.64 237.78) rotate(-80.78)"/><circle class="cls-6" cx="110.42" cy="153.35" r="109.62" transform="translate(-58.64 237.78) rotate(-80.78)"/><circle class="cls-7" cx="110.42" cy="153.35" r="103.64" transform="translate(-58.64 237.78) rotate(-80.78)"/><path class="cls-8" d="M205.38,153.34a95,95,0,1,1-94.95-94.95A94.47,94.47,0,0,1,205.38,153.34Z"/><path class="cls-6" d="M159.18,85.58C156.87,98,121.08,140,114.24,145.31c-2,1.55-5.84,1.23-7.88-2.71C99,128.4,85.73,77.06,95.11,67.67,106,56.81,161.52,73.12,159.18,85.58Z"/><g class="cls-9"><path class="cls-6" d="M110.14,136.32c-.36,3.46-.68,6.54-1,9.07a6.57,6.57,0,0,1-2.56-2.47.91.91,0,0,1-.22-.32c-1.64-17.87-4.52-57,1.73-60.29C113.37,79.56,112.09,114.76,110.14,136.32Z"/><path class="cls-6" d="M109.21,145.42s-.07,0-.07,0a6.57,6.57,0,0,1-2.56-2.47c1.09-2,2.28-4.26,3.56-6.6,9.32-17.2,23.54-41.35,29.4-40.81C145.86,96.12,122.31,129.15,109.21,145.42Z"/></g><path class="cls-6" d="M191.44,180.31c-12.45,2.23-64.37-16.43-71.76-20.95-2.16-1.32-3.21-5-.25-8.33,10.68-11.92,54-42.45,66.12-37C199.55,120.37,203.92,178.09,191.44,180.31Z"/><g class="cls-9"><path class="cls-6" d="M126.64,152.35c-3.36.89-6.35,1.68-8.83,2.27a6.53,6.53,0,0,1,1.4-3.27,1.08,1.08,0,0,1,.22-.32c16.14-7.84,51.78-24.38,57-19.68C180.89,135.32,147.5,146.56,126.64,152.35Z"/><path class="cls-6" d="M117.8,154.7s0-.08,0-.08a6.53,6.53,0,0,1,1.4-3.27c2.27.31,4.79.63,7.43,1,19.39,2.64,47,7.42,48.57,13.09C176.87,171.56,137.65,161.2,117.8,154.7Z"/></g><path class="cls-6" d="M53.61,87.05C65.3,91.86,99,135.51,102.84,143.3c1.11,2.27,0,6-4.27,7.15-15.41,4.31-68.38,6.74-75.64-4.38C14.53,133.22,41.89,82.2,53.61,87.05Z"/><g class="cls-9"><path class="cls-6" d="M93.2,145.46c3.32,1.06,6.26,2,8.67,2.84a6.48,6.48,0,0,1-2.94,2,1.05,1.05,0,0,1-.36.15c-17.83-2.07-56.76-7.29-58.65-14.07C38.31,130.64,72.5,139.13,93.2,145.46Z"/><path class="cls-6" d="M101.92,148.24s0,.06,0,.06a6.48,6.48,0,0,1-2.94,2c-1.75-1.48-3.7-3.1-5.73-4.84-14.92-12.65-35.64-31.53-33.9-37.16C61.19,102.25,88.68,132.08,101.92,148.24Z"/></g><path class="cls-6" d="M29.05,168.71c10-7.73,64.67-15.16,73.32-14.57,2.52.18,5.17,3,4.07,7.27-4,15.51-28.31,62.61-41.57,63.35C49.54,225.62,19,176.44,29.05,168.71Z"/><g class="cls-9"><path class="cls-6" d="M99.43,163.57c2.57-2.34,4.86-4.42,6.79-6.09a6.55,6.55,0,0,1,.26,3.54,1,1,0,0,1,0,.39C95.74,175.83,71.77,207,65,205.2,59.18,203.73,83.61,178.34,99.43,163.57Z"/><path class="cls-6" d="M106.19,157.41s0,.07,0,.07a6.55,6.55,0,0,1,.26,3.54c-2.15.78-4.53,1.66-7,2.55C81,170.18,54.32,178.71,50.31,174.39,46,169.73,85.58,160.81,106.19,157.41Z"/></g><path class="cls-6" d="M99.89,239.58c-4.27-11.9,5.5-66.2,8.73-74.24.94-2.35,4.42-4,8.17-1.63,13.53,8.55,50.84,46.22,47.46,59.06C160.34,237.62,104.15,251.52,99.89,239.58Z"/><g class="cls-9"><path class="cls-6" d="M116.69,171c-1.44-3.16-2.71-6-3.71-8.33a6.6,6.6,0,0,1,3.46.84,1.26,1.26,0,0,1,.35.17c10.42,14.61,32.65,47,28.88,52.95C142.49,221.7,125.86,190.64,116.69,171Z"/><path class="cls-6" d="M112.91,162.71c0-.05.07,0,.07,0a6.6,6.6,0,0,1,3.46.84c.07,2.29.18,4.83.25,7.49.61,19.56.5,47.59-4.84,50.07C106.09,223.76,109.79,183.37,112.91,162.71Z"/></g><path class="cls-10" d="M205.38,153.34A94.47,94.47,0,0,1,189,206.61,105.86,105.86,0,0,1,78.49,63.9a95,95,0,0,1,126.89,89.44Z"/><path class="cls-11" d="M157.22,212s34.28-19.72,35.48-34.45S164.86,118,164.86,118,149.5,101.75,123,102c-2.25-17.54,13.83-26.9,17.67-36.26C156.75,59,114.22,8.39,92.38,34.07s9.89,49.62,9.89,49.62l-4.13,17S69.58,78.47,64,103.34c-9.92,36.14,0,72.28,0,72.28s65.91-34.83,80.19-32.2c46.34,33.79,13,68.62,13,68.62"/><path class="cls-12" d="M141.25,189.94c-7-8.63-23.09-20.48-14.16-32.89,4.89-6.82,16.45-5.59,19.08-14.89.11-.4.21-.82.29-1.26a13.44,13.44,0,0,0-2.4-10c-.11-.16-.22-.34-.34-.55-6.39-11.41-21.16-15.07-31.61-7.2a33.92,33.92,0,0,0-11.33,14.44,27.9,27.9,0,0,0-7.91-16.79,9.41,9.41,0,0,0-14.35,1.08c-9.51,13.76-4.1,30.68-2.82,45.9.1,1.19.16,2.38.18,3.56,17.21-13.94,44.05-12.53,44.05-12.53C97.41,164.69,79.88,182.47,73.3,190c-2.62,9.83-6.67,19.38-9.46,29.33-9.07,32.28-1.92,66.63,5.25,99.38,1.79-22.12,19.56-40.25,39.73-49.5,6.26-2.88,12.47-6.08,18.69-9,1.33-.62,2.65-1.23,4-1.82,9.65-4.26,19-9.33,20.14-20.34C153.29,221.58,152,203.15,141.25,189.94Z"/><path class="cls-13" d="M164,114.1c-8.63-8-38.86-14.46-38.86-14.46h0a18.38,18.38,0,0,1-.51-3.4,14.14,14.14,0,0,1,2.89-8.32c3.78-4.85,10.16-6.63,14.09-11.29,4.78-5.69,1.93-11.86,4.69-18.12.6-1.34,1.37-2.61,1.94-4,2-4.62,1.74-10.79,1.51-15.77-.16-3.34-1.67-6.23-2.84-9.28-1.35-3.56-1.39-6.77-2.21-10.37-1.12-5-6.31-10.33-9.8-13.9-5.67-5.82-10.77-1.27-17.3-4.1-.54-.24-1-.53-1.61-.72C110.76-1.34,102.73,3,98.08,4.91a34.68,34.68,0,0,0-12.87,9.84c-.79.93-1.52,1.91-2.25,2.87-2.33,3-4.66,5.8-9,6.15-2.91.24-6.07.24-8.4,2s-3.14,4.63-3.89,7.35Q60.82,36,60,39c-1.35,4.86-4,6.68-9,6.3a14.29,14.29,0,0,0-9.57,2.41,9.06,9.06,0,0,0-3.7,8.81c.48,2.25,2,4.15,3.45,5.92,3,3.57,6.33,7.46,6.36,12.12a9.47,9.47,0,0,1-12.36,9.08c-2.85-.91-5.58-3.48-7.65-5.16-1.45-1.18-3.45-1.36-5.31-1.49-4.43-.3-9.8,1.43-12,5.75a30.77,30.77,0,0,0-2,4.39c-1.06,3.21-.46,5.6.49,8.7s3.15,4.78,4.14,7.67c.69,2,.2,4.61-1.66,5.65a5.57,5.57,0,0,1-2.38.58A7,7,0,0,1,3.39,108c-1.37-1.4-1.54-4,0-5.19-3.52,1.51-4.4,6.63-2.28,9.82s6.31,4.5,10.13,4.19A12.42,12.42,0,0,0,19,113.52a8.56,8.56,0,0,0,2.46-7.86c-.55-2.3-2.17-4.17-3.2-6.3s-1.32-5,.46-6.56a4.89,4.89,0,0,1,2-1A7.27,7.27,0,0,1,29,95.51c1.92,3.33,3.75,6.65,5.71,10a15.23,15.23,0,0,0,5.58,5.23,21.07,21.07,0,0,0,12.94,2.61,13,13,0,0,0,6.18-2.17c-5.94,51.46,2.45,75.7,2.45,75.7,26.23-25.65,60-27.26,60-27.26-31.26-6.81-56.79,16.84-56.79,16.84-7.1-30.47,0-72.29,0-72.29h0c.56-1.13,1.09-2.3,1.61-3.52,1.93-4.52,6.72-5.8,11.25-5.68,7.29.2,14.92,3.18,21.29,6.6,3.64-3.62,4.26-11.23,4.14-17C89.7,72.72,89.28,53.81,93,37.56c1.5-6.61,10.92-6.51,15.48-2.2,1.89,1.78,2.62,4.45,3.19,7,.93,4.12,2.17,8.94,6.08,10.53,1.72.69,3.63.6,5.46.85a14.44,14.44,0,0,1,10.1,6.57c6.19,10-4.18,21.16-12.8,25.71-1.32,11.72,3.53,16.83,3.54,16.84s27.51,4.48,37.37,16,29.11,56.57,29.11,58.36c0,13.9-33.34,34.83-33.34,34.83,34.83-17,40.48-33.94,40.48-33.94S172.65,122.14,164,114.1Z"/></g></g></g></svg>